<svg xmlns="http://www.w3.org/2000/svg" xml:space="preserve" id="Layer_1" x="0" y="0" version="1.1" viewBox="0 0 850 850">
  <style>
    .st6{enable-background:new}.st7{fill:#fff}
  </style>
  <path id="Layer_2_00000093866693757886040790000007331296095967741625_" fill="none" stroke="#758f9c" stroke-dasharray="50 50" stroke-linecap="round" stroke-linejoin="round" stroke-width="8" d="M757.1 757.8c-61.3 61.3-260.2-38.3-444.3-222.4-436.4-448.3-226.3-658.3 221.9-222 184.1 184.1 283.7 383.1 222.4 444.4h0z"/>
  <path id="Layer_3" fill="none" stroke="#0091bd" stroke-dasharray="50 50" stroke-linecap="round" stroke-linejoin="round" stroke-width="8" d="M759.4 89.6C698.1 28.3 499.2 127.9 315 312-121.3 760.3 88.8 970.3 537 534 721.1 349.8 820.7 150.9 759.4 89.6h0z"/>
  <g id="Layer_1_00000180345756104786276190000003506528160067836319_">
    <path fill="#0091be" d="m173.8 346.1.4-41.4c0-1.8-.1-3.7.2-5.5.7-4.7 4.4-7.5 8.7-7.1s7 3.4 7 8.2v45.8h47.1v-44.6c0-6 2.9-9.4 7.9-9.4 4.8 0 8.1 3.4 8.1 9.4.2 11.7 0 23.3-.1 35v9.9c8.3 0 39 .2 46.6-.1 1.3 0 .1-35.4.1-44 0-6.6 3-10.4 8.1-10.3s8 3.8 8 10.5v43.6c31.1-.9 47.2 13.9 47 45.6l5.4.2h39.5c5.8 0 8.9 2.7 9 7.6s-3.1 8.1-8.7 8.1c-13.5.1-27 .2-40.5 0-3.9-.1-5.2.9-5.1 5 .3 12.5.1 25 .1 37.5l.3 4.4H408c5.5 0 8.5 2.5 8.7 7.3.2 4.9-2.9 8.4-8.3 8.6-6.3.2-12.7.1-19 .1h-23c-2.2 0-4 .1-4 3.1v43.1l5 .3h39c6.6 0 10.2 2.9 10.2 8.2 0 5.1-3.6 7.9-10 7.9-13.2 0-26.3.1-39.5-.1-3.7-.1-4.8 1-4.8 4.8.2 12.2.3 24.3 0 36.5-.1 4.6 1.5 5.6 5.8 5.5 12.5-.2 25-.1 37.5-.1 1.3 0 2.7-.1 4 .1 4.6.7 7.4 4.2 7 8.7-.4 4.4-3.3 7.1-8 7.1h-46.3c.9 13.9-.5 26.4-10.5 36.7-9.8 10.1-21.9 12.4-35.7 11.4l-.3 5.7v37c0 1.3.1 2.7-.1 4-.6 4.8-4.3 8.1-8.8 7.7-4.4-.3-7.2-3.6-7.2-8.6 0-13.5-.2-27 .1-40.5.1-4.1-1-5.5-5.3-5.4-12.2.3-24.3.2-36.5 0-3.8-.1-5.2.9-5.2 5 .3 13.2.3 26.3-.1 39.5-.1 3-1.7 6.6-3.9 8.5-1.6 1.4-5.8 1.4-7.8.2a9.8 9.8 0 0 1-4-7.2c-.4-13.3-.2-26.7-.2-40v-5.9h-34.9c-12.2 0-12.2 0-12.2 12.2v33c0 5.7-2.8 9.1-7.5 9.2-4.9.1-8.3-3.4-8.4-9.2l-.1-37c-.1-9 1.5-8.1-8.3-8.2h-37.9l-.3 5.6v39c0 5.9-3 9.6-7.7 9.7-5.2 0-8.5-3.5-8.6-9.5v-44.1c-7.7-.7-18.4.2-23.4-2.3a59 59 0 0 1-5.6-3.4c-12.9-8.7-19.1-25-17.2-42.9l-5.8-.3H19.4c-6 0-9.3-2.8-9.3-8 0-4.8 3.6-8 9.5-8 13.3-.1 26.7-.1 40 .1 3.7.1 5-1 4.9-4.8-.2-12.5-.2-25 0-37.5.1-3.5-1-4.6-4.5-4.6-13.3.2-26.7.1-40 .1-6.4 0-9.8-2.9-9.8-8s3.6-8 9.9-8.1c13.2 0 26.3-.1 39.5.1 3.6.1 5-.7 5-4.6-.2-12.5-.2-25 0-37.5.1-3.6-1.1-4.5-4.6-4.5-12.7.2-25.3.1-38 0-1.5 0-3 .1-4.5-.2-4.8-.7-7.5-4-7.2-8.6.3-4.7 3.1-7.2 8.3-7.3 13.7 0 27.3-.1 41 .1 4 .1 5.1-1.1 5-5.1-.3-12.2-.3-24.3 0-36.5.1-4.6-1.4-5.6-5.7-5.5-13.2.3-26.3 0-39.5.1-4.1 0-7.3-1.4-8.8-5.2-2.2-5.7 1.5-10.6 8-10.6h38c8.3 0 7.8 1.5 7.8-7.6a37 37 0 0 1 24-35.3c4.4-1.7 9.4-2 14.1-2.6 2.6-.3 5.2-.1 8.4-.1v-43.9c0-6.6 3-10.5 8.1-10.5 5.2 0 8.2 3.7 8.2 10.3 0 14.3.1 28.7.4 43.7.8.7 1.3.7 1.8.6l21 .1 11.2-.2c2.3 0 4.6 0 7.7.2 2.4.5 3.5.3 4.5 0"/>
    <g id="ARM_Shapes" class="st6">
      <path d="m141.4 503.4-4 10.7c-1.1 2.9-4.7 4.3-7.8 3.2a6.1 6.1 0 0 1-3.7-7.7l16.9-45.6a8.4 8.4 0 0 1 8.4-5.8h.5c4.3 0 7.1 2.2 8.4 5.8l16.9 45.6c1 2.9-.7 6.7-3.7 7.7-3.1 1-6.7-.3-7.8-3.2l-4-10.7h-20.1zm16-10.8-6-20.4-6 20.4h12zm58 2.4 9.5 13.7c1.7 2.6.6 6.4-2.3 8.1-2.7 1.6-6.5.8-8.1-1.7l-11.2-18.5h-5.7v15.3c0 3.1-2.8 5.8-6.2 5.8-3.2 0-6.2-2.7-6.2-5.8V465c.1-3.5 2.2-6.4 6-6.4h17.9c13.1 0 19.3 9.4 19.5 18.9-.3 7.7-4.5 15-13.2 17.5zm-17.8-25.4v16.5h11.1c4.8 0 7.4-4.4 7.4-8.2 0-3.7-2.4-8.2-7.1-8.2h-11.4zm89.8-7.6c1.5-3.2 3.2-3.7 5.6-3.7h1.3c2.9 0 5.2 2.6 5.5 5.5l5.9 47.7c.3 3-2.5 6-5.7 6.2a6 6 0 0 1-6.6-5.3l-3.6-30.3-11.6 24.1c-1.1 2.4-3.2 5.2-6.9 5.2s-5.7-2.8-6.8-5.2l-11.7-24.1-3.6 30.3c-.3 3.1-3.3 5.5-6.6 5.3-3.2-.3-6.1-3.2-5.7-6.2l5.9-47.7c.3-2.9 2.6-5.5 5.5-5.5h1.3c2.4 0 4.2.5 5.6 3.7l16.2 34.4 16-34.4z" class="st7"/>
    </g>
  </g>
  <g id="Layer_4">
    <path fill="#758f9c" d="m587 250.6.4-41.4c0-1.8-.1-3.7.2-5.5.7-4.7 4.4-7.5 8.7-7.1 4.3.4 7 3.4 7 8.2v45.8h47.1V206c0-6 2.9-9.4 7.9-9.4 4.8 0 8.1 3.4 8.1 9.4.2 11.7 0 23.3-.1 35v9.9c8.3 0 39 .2 46.6-.1 1.3 0 .1-35.4.1-44 0-6.6 3-10.4 8.1-10.3 5.1.1 8 3.8 8 10.5v43.6c31.1-.9 47.2 13.9 47 45.6l5.4.2H821c5.8 0 8.9 2.7 9 7.6s-3.1 8.1-8.7 8.1c-13.5.1-27 .2-40.5 0-3.9-.1-5.2.9-5.1 5 .3 12.5.1 25 .1 37.5l.3 4.4h45.1c5.5 0 8.5 2.5 8.7 7.3.2 4.9-2.9 8.4-8.3 8.6-6.3.2-12.7.1-19 .1h-23c-2.2 0-4 .1-4 3.1v43.1l5 .3h39c6.6 0 10.2 2.9 10.2 8.2 0 5.1-3.6 7.9-10 7.9-13.2 0-26.3.1-39.5-.1-3.7-.1-4.8 1-4.8 4.8.2 12.2.3 24.3 0 36.5-.1 4.6 1.5 5.6 5.8 5.5 12.5-.2 25-.1 37.5-.1 1.3 0 2.7-.1 4 .1 4.6.7 7.4 4.2 7 8.7-.4 4.4-3.3 7.1-8 7.1h-46.3c.9 13.9-.5 26.4-10.5 36.7-9.8 10.1-21.9 12.4-35.7 11.4l-.3 5.7v37c0 1.3.1 2.7-.1 4-.6 4.8-4.3 8.1-8.8 7.7-4.4-.3-7.2-3.6-7.2-8.6 0-13.5-.2-27 .1-40.5.1-4.1-1-5.5-5.3-5.4-12.2.3-24.3.2-36.5 0-3.8-.1-5.2.9-5.2 5 .3 13.2.3 26.3-.1 39.5-.1 3-1.7 6.6-3.9 8.5-1.6 1.4-5.8 1.4-7.8.2a9.8 9.8 0 0 1-4-7.2c-.4-13.3-.2-26.7-.2-40v-5.9h-34.9c-12.2 0-12.2 0-12.2 12.2v33c0 5.7-2.8 9.1-7.5 9.2-4.9.1-8.3-3.4-8.4-9.2l-.1-37c-.1-9 1.5-8.1-8.3-8.2h-37.9l-.3 5.6v39c0 5.9-3 9.6-7.7 9.7-5.2 0-8.5-3.5-8.6-9.5v-44.1c-7.7-.7-18.4.2-23.4-2.3a59 59 0 0 1-5.6-3.4c-12.9-8.7-19.1-25-17.2-42.9l-5.8-.3h-39.5c-6 0-9.3-2.8-9.3-8 0-4.8 3.6-8 9.5-8 13.3-.1 26.7-.1 40 .1 3.7.1 5-1 4.9-4.8-.2-12.5-.2-25 0-37.5.1-3.5-1-4.6-4.5-4.6-13.3.2-26.7.1-40 .1-6.4 0-9.8-2.9-9.8-8s3.6-8 9.9-8.1c13.2 0 26.3-.1 39.5.1 3.6.1 5-.7 5-4.6-.2-12.5-.2-25 0-37.5.1-3.6-1.1-4.5-4.6-4.5-12.7.2-25.3.1-38 0-1.5 0-3 .1-4.5-.2-4.8-.7-7.5-4-7.2-8.6.3-4.7 3.1-7.2 8.3-7.3 13.7 0 27.3-.1 41 .1 4 .1 5.1-1.1 5-5.1-.3-12.2-.3-24.3 0-36.5.1-4.6-1.4-5.6-5.7-5.5-13.2.3-26.3 0-39.5.1-4.1 0-7.3-1.4-8.8-5.2-2.2-5.7 1.5-10.6 8-10.6h38c8.3 0 7.8 1.5 7.8-7.6a37 37 0 0 1 24-35.3c4.4-1.7 9.4-2 14.1-2.6 2.6-.3 5.2-.1 8.4-.1v-43.9c0-6.6 3-10.5 8.1-10.5 5.2 0 8.2 3.7 8.2 10.3 0 14.3.1 28.7.4 43.7.8.7 1.3.7 1.8.6l21 .1 11.2-.2c2.3 0 4.6 0 7.7.2 2.3.5 3.4.3 4.5 0"/>
    <g id="X86_Shapes" class="st6">
      <path d="M571 426.9c-1.4 2.5-5.5 3.2-8.2 1.6-2.8-1.9-3.7-5.5-2-8.2l14.6-22.6-12.5-18.6c-1.5-2.6-.7-6.6 2-8.2 2.8-1.7 6.7-1 8.3 1.6l9.5 15.6 9.5-15.6c1.6-2.6 5.5-3.3 8.3-1.6a6.2 6.2 0 0 1 2 8.2L590 397.7l14.6 22.6c1.7 2.6.8 6.3-2 8.2-2.7 1.6-6.8.8-8.2-1.6l-11.7-19.2-11.7 19.2zm62.3-54.7c9.4 0 17.3 7 17.3 15.6 0 3.9-1.5 7.1-4.1 9.4 4.8 2.8 8 8 8 14 0 10.6-9.5 18.6-21.2 18.6s-21.2-8-21.2-18.6c0-6.1 3.1-11.2 8-14-2.5-2.4-4-5.5-4-9.4.1-8.7 7.8-15.6 17.2-15.6zm0 46.5c4.9 0 9.3-3.5 9.3-8.2 0-4.3-3.1-8.3-9.4-8.3-6 0-9.2 4.1-9.2 8.3.1 4.7 4.4 8.2 9.3 8.2zm0-25.3c3.8 0 5.7-2.5 5.7-5.4 0-2.7-2-5.2-5.7-5.2s-5.7 2.5-5.7 5.2c0 2.9 1.9 5.4 5.7 5.4zm52.6-10.1c-7.6 0-10.6 8.1-10.5 15.4v1.4c.8-2.5 4.3-6.5 12.1-6.5 5.7 0 16.6 4.7 16.6 17.5 0 10.7-8.1 18.6-20.2 18.6-10.5 0-19-7.6-20-19.4-1.4-17.2 1.6-38.8 22.5-38.2 4.8.2 10 1.1 13.6 5.4 2 2.4 2.2 5.4-.2 7.7-2.2 2.2-5.5 1.7-7.7-.1a11.1 11.1 0 0 0-6.2-1.8zm-1.6 20.5c-4 0-7.3 3.3-7.3 7.3s3.3 7.3 7.3 7.3 7.3-3.3 7.3-7.3-3.3-7.3-7.3-7.3z" class="st7"/>
    </g>
  </g>
</svg>
