<svg xmlns="http://www.w3.org/2000/svg" viewBox="0 0 1024 1024">
  <style>
    .st1{fill:url(#SVGID_00000142153480721631682770000015268560695273528227_)}.st2{fill:url(#SVGID_00000173123330542431837800000002735373944052685963_)}.st3{fill:url(#SVGID_00000000932619653121383270000010548039156530092446_)}.st4{fill:url(#SVGID_00000114756416844422008610000016463896514830634639_)}
  </style>
  <g id="Layer_6">
    <linearGradient id="SVGID_1_" x1="513.8" x2="513.8" y1="34.8" y2="986.8" gradientUnits="userSpaceOnUse">
      <stop offset="0" stop-color="#fcfdfd"/>
      <stop offset="1" stop-color="#cacaca"/>
    </linearGradient>
    <circle cx="513.8" cy="510.8" r="476" fill="url(#SVGID_1_)"/>
  </g>
  <g id="Layer_5">
    <linearGradient id="SVGID_00000070812480717520541280000012671589882185279674_" x1="512" x2="512" y1="75.8" y2="951.5" gradientUnits="userSpaceOnUse">
      <stop offset="0" stop-color="#9351ec"/>
      <stop offset="1" stop-color="#4a2a8b"/>
    </linearGradient>
    <circle cx="512" cy="513.6" r="437.8" fill="url(#SVGID_00000070812480717520541280000012671589882185279674_)"/>
  </g>
  <g id="Layer_4">
    <linearGradient id="SVGID_00000129170070612913752460000012559031470292312963_" x1="710.1" x2="710.1" y1="342" y2="685.2" gradientUnits="userSpaceOnUse">
      <stop offset="0" stop-color="#f4f5f7"/>
      <stop offset="1" stop-color="#cbd1da"/>
    </linearGradient>
    <path fill="url(#SVGID_00000129170070612913752460000012559031470292312963_)" d="M858.9 478.3a134.3 134.3 0 0 0-29.6-68.5 169.2 169.2 0 0 0-38.4-34.7 172.9 172.9 0 0 0-43.5-21.5c-19-5.9-38.3-11.1-58.5-11.1-1.4 0-2.8-.4-4.1-.6h-4.2c-5.6.4-11.1.7-16.6 1.3a226.7 226.7 0 0 0-52.3 11.1 146.6 146.6 0 0 1-25.1 112.3c-7.7 11-16.6 20.8-26.5 29.5 5.2 1.2 10.4 2.5 15.6 4.1a211 211 0 0 1 87.2 48.7l42.9-54.8-45.9-59.4H685l33.4 44.8 33.5-44.8h23.3l-46.6 58.4 46.6 60.2h-25.1l-33.6-45.5-33.8 45.5h-15.5c4.2 4.3 8.3 8.9 12.2 13.7a144.3 144.3 0 0 1 32.7 76.6c4-.6 7.9-1.3 11.9-2.3 3.6-.8 6.1-.1 8.7 2.6 12.1 12.2 24.4 24.1 36.6 36.2 1.7 1.6 3.6 3.1 6 5.1l1-6.2c2.1-18.2 4.4-36.5 6.2-54.7a11 11 0 0 1 5.8-9 162.9 162.9 0 0 0 55-57.2 124.5 124.5 0 0 0 16.3-55.5c.1-1.2.4-2.3.6-3.5v-10.8c-.6-3.4-.9-6.7-1.3-10z"/>
    <linearGradient id="SVGID_00000070823910853028350440000010568531003814886073_" x1="501.8" x2="501.8" y1="491.3" y2="871.9" gradientUnits="userSpaceOnUse">
      <stop offset="0" stop-color="#e3e6eb"/>
      <stop offset="1" stop-color="#bac1cd"/>
    </linearGradient>
    <path fill="url(#SVGID_00000070823910853028350440000010568531003814886073_)" d="M572.7 501.3a248 248 0 0 0-49.9-9.2c-50.5-4-98.2 5.5-142.3 30.8-29 16.6-52.6 39-68.8 68.6a139 139 0 0 0 5.1 144 175.5 175.5 0 0 0 61.1 58.2c4.2 2.5 5.3 5.5 5.7 9.7l4.5 39.1 3.3 29.3h.6l9.9-9.4c13.5-13 27.1-26 40.5-39.1 2-1.9 3.8-2.5 6.6-1.9 61.4 12.4 119.8 4.8 174.6-26.3 28.7-16.3 52-38.6 68.1-67.7A139.5 139.5 0 0 0 676.3 568c-27-33.7-62.6-54.5-103.6-66.7zM539 730.2a121 121 0 0 1-24.2 3.5c-12.1 0-21.3-3.2-27.6-9.8-6.3-6.5-9.5-16.9-9.5-31.3v-63h-13.5v-16.8h13.5v-34.1h19.9v34.1H539v16.8h-41.1v54c0 6.2.1 11.1.4 14.6.3 3.5 1.3 6.8 3 9.8 1.6 2.8 3.7 4.9 6.4 6.2 2.7 1.3 6.9 2 12.5 2a52 52 0 0 0 17.9-3.8h1.1v17.8z"/>
    <linearGradient id="SVGID_00000002357701243622225400000015860776767436705928_" x1="404.5" x2="404.5" y1="209.1" y2="595.5" gradientUnits="userSpaceOnUse">
      <stop offset="0" stop-color="#fefeff"/>
      <stop offset="1" stop-color="#d7dce3"/>
    </linearGradient>
    <path fill="url(#SVGID_00000002357701243622225400000015860776767436705928_)" d="m295.5 595.5 10.1-9.8 31.4-30.8 2.6-2.5a188.5 188.5 0 0 1 42-32.3 242 242 0 0 1 142.3-30.8c11.6.9 23 2.6 34.2 5.1 9.9-8.7 18.8-18.4 26.5-29.5a146.2 146.2 0 0 0-7.5-180.3 194.4 194.4 0 0 0-61.7-49.3 232.6 232.6 0 0 0-86.9-25.1c-43.8-4-85.9 2.5-126 21-17.4 8-33.6 18-48.1 30.6-28.2 24.7-48 54.5-55.1 91.9a140.8 140.8 0 0 0 11.4 86.9 181.3 181.3 0 0 0 68.7 75.1 13 13 0 0 1 7.1 10.8c2.2 21.9 4.8 43.8 7.4 65.7l.5 3.2 1.1.1zm71.4-271.4h13.5V290h20v34.1h41.2v16.8h-41.2v54c0 6.2.1 11.1.4 14.6.3 3.5 1.3 6.8 3 9.8 1.6 2.8 3.7 4.9 6.4 6.2 2.7 1.3 6.9 2 12.5 2 3.2 0 6.6-.5 10.2-1.4 3.5-1 6.1-1.7 7.7-2.4h1.1v17.9a121 121 0 0 1-24.2 3.5c-12.1 0-21.3-3.2-27.6-9.8-6.3-6.5-9.5-16.9-9.5-31.3v-63h-13.5v-16.9z"/>
  </g>
</svg>
