<svg xmlns="http://www.w3.org/2000/svg" viewBox="0 0 130 130">
  <path fill="#d47077" fill-rule="evenodd" clip-rule="evenodd"
    d="M58.4 38.3c-48.2 3-72.5 23.2-47.9 39.8C25.7 88.4 61.1 93.4 87.1 89c5.1-.9 4.4-1.4-2.5-1.8a162 162 0 0 1-35.2-6.5c-19.7-5.9-25.7-11.5-27.5-14.1a13 13 0 0 1-2.1-9.3c2-4.9 2.8-5.6 4.5-6.7 3.2-2.9 23.4-8 40.8-9 2.7-.4 3.9 1-.4 2.1-11.7 2.8-21.9 5.2-20.1 8.5 1.6 2.9 27 5.3 40.3 8.3 4 4-46.9-2.1-48.4 2.3-4.6 5.2 35.7 17.3 64.2 21.4l4.7.7 3.3-1.2C141.6 71.5 134 49.4 94 41.1a166 166 0 0 0-35.6-2.8" />
</svg>